<?xml version="1.0" standalone="no"?><!DOCTYPE svg PUBLIC "-//W3C//DTD SVG 1.1//EN" "http://www.w3.org/Graphics/SVG/1.1/DTD/svg11.dtd"><svg fill="currentColor" t="1650789689949" class="icon" viewBox="0 0 1075 1024" version="1.1" xmlns="http://www.w3.org/2000/svg" p-id="4135" xmlns:xlink="http://www.w3.org/1999/xlink" width="209.9609375" height="200"><defs><style type="text/css">@font-face { font-family: feedback-iconfont; src: url("//at.alicdn.com/t/font_1031158_u69w8yhxdu.woff2?t=1630033759944") format("woff2"), url("//at.alicdn.com/t/font_1031158_u69w8yhxdu.woff?t=1630033759944") format("woff"), url("//at.alicdn.com/t/font_1031158_u69w8yhxdu.ttf?t=1630033759944") format("truetype"); }
</style></defs><path d="M950.784 348.4672V290.5088c0-60.7232-47.4112-128.7168-110.2848-128.7168H562.688l-8.3456-15.9744a79.5136 79.5136 0 0 0-28.8768-31.8976A75.6736 75.6736 0 0 0 484.7104 102.4H180.224a101.4272 101.4272 0 0 0-73.728 32.768A109.568 109.568 0 0 0 76.8 212.4288V811.52c-0.3584 28.672 10.2912 56.4224 29.696 77.2608a101.4784 101.4784 0 0 0 73.728 32.768h714.8544a101.4784 101.4784 0 0 0 73.728-32.768c19.3536-20.8384 29.952-48.5376 29.5936-77.2608V444.0064c-0.0512-34.7648-18.2272-69.4784-47.5136-95.488h-0.1024v-0.0512z m-79.5648-28.928h-227.7376l-38.0416-75.264h236.032c12.6976 0 30.7712 24.576 30.7712 46.2848v28.928l-1.024 0.0512z m47.4624 122.9824v367.616a27.648 27.648 0 0 1-6.656 18.5344 25.7536 25.7536 0 0 1-17.1008 8.9088H180.0192a24.8832 24.8832 0 0 1-17.2544-8.704 26.8288 26.8288 0 0 1-6.4512-18.7392V210.944a27.5968 27.5968 0 0 1 6.656-18.5856 25.8048 25.8048 0 0 1 17.0496-8.9088h303.0528L583.68 380.3648a41.3184 41.3184 0 0 0 34.816 21.7088h259.4816c15.4112 0 40.7552 26.112 40.7552 40.5504l-0.0512-0.1024z" p-id="4136"></path><path d="M652.8 541.0304a25.6 25.6 0 0 1 0 44.3392l-153.6 88.6784a25.6 25.6 0 0 1-38.4-22.1696V474.5216a25.6 25.6 0 0 1 38.4-22.1696l153.6 88.6784z" p-id="4137"></path></svg>