<svg width="10" height="20" viewBox="0 0 10 20" fill="none" xmlns="http://www.w3.org/2000/svg">
<path d="M7.67127 15.6649C7.88146 15.4503 7.99953 15.1593 7.99953 14.8558C7.99953 14.5523 7.88146 14.2613 7.67127 14.0467L3.70682 9.99995L7.67127 5.95436C7.77544 5.8481 7.85808 5.72195 7.91449 5.58309C7.97089 5.44423 7.99995 5.29539 8 5.14507C8.00005 4.99475 7.9711 4.84589 7.91479 4.707C7.85848 4.5681 7.77592 4.44188 7.67183 4.33555C7.56774 4.22922 7.44414 4.14486 7.30811 4.08729C7.17208 4.02971 7.02626 4.00005 6.879 4C6.73174 3.99995 6.5859 4.0295 6.44983 4.08698C6.31376 4.14445 6.19011 4.22872 6.08594 4.33498L1.32882 9.19083C1.22458 9.29712 1.14188 9.42334 1.08546 9.56227C1.02904 9.7012 1 9.85013 1 10.0005C1 10.1509 1.02904 10.2998 1.08546 10.4388C1.14188 10.5777 1.22458 10.7039 1.32882 10.8102L6.08594 15.6649C6.29619 15.8795 6.58131 16 6.8786 16C7.1759 16 7.46102 15.8795 7.67127 15.6649Z" fill="#8A8F99"/>
</svg>
