<?xml version="1.0" standalone="no"?><!DOCTYPE svg PUBLIC "-//W3C//DTD SVG 1.1//EN" "http://www.w3.org/Graphics/SVG/1.1/DTD/svg11.dtd"><svg t="1649313582962" class="icon" viewBox="0 0 1024 1024" version="1.1" xmlns="http://www.w3.org/2000/svg" p-id="4627" xmlns:xlink="http://www.w3.org/1999/xlink" width="200" height="200"><defs><style type="text/css">@font-face { font-family: feedback-iconfont; src: url("//at.alicdn.com/t/font_1031158_u69w8yhxdu.woff2?t=1630033759944") format("woff2"), url("//at.alicdn.com/t/font_1031158_u69w8yhxdu.woff?t=1630033759944") format("woff"), url("//at.alicdn.com/t/font_1031158_u69w8yhxdu.ttf?t=1630033759944") format("truetype"); }
</style></defs><path d="M266.24 409.6a225.28 225.28 0 0 0 0 450.56h491.52a225.28 225.28 0 0 0 0-450.56 245.76 245.76 0 0 0-491.52 0z m267.4688-14.6944l115.8656 115.84a30.72 30.72 0 0 1-41.2672 45.44l-2.2016-1.9712-63.4112-63.4624 0.0256 215.808a30.7712 30.7712 0 0 1-52.4544 21.7344 30.7456 30.7456 0 0 1-8.9856-21.7344v-215.7824l-63.4112 63.4368a30.6688 30.6688 0 0 1-41.2672 1.9712l-2.2016-1.9712a30.6688 30.6688 0 0 1-1.9712-41.2672l1.9712-2.2016 115.8656-115.84a30.72 30.72 0 0 1 41.2672-1.9968l2.176 1.9968z" p-id="4628"></path></svg>