<svg width="20" height="20" viewBox="0 0 20 20" fill="none" xmlns="http://www.w3.org/2000/svg">
<path fill-rule="evenodd" clip-rule="evenodd" d="M2.04266 17.6934C2.77423 18.4962 3.82828 19 5 19H15C17.2091 19 19 17.2091 19 15C19 12.7909 17.2091 11 15 11H8.66633L2.04266 17.6934ZM9.65591 10H14.5C16.9853 10 19 7.98528 19 5.5C19 4.14889 18.4045 2.93685 17.4618 2.11199L16.333 3.25263C16.9842 3.78442 17.4 4.59366 17.4 5.5C17.4 7.10163 16.1016 8.4 14.5 8.4H11.2392L9.65591 10ZM8.5876 8.4L7.00426 10H5.5C3.01472 10 1 7.98528 1 5.5C1 3.01472 3.01472 1 5.5 1H14.5C14.9299 1 15.3457 1.06028 15.7395 1.17286L14.3272 2.6H5.5C3.89837 2.6 2.6 3.89837 2.6 5.5C2.6 7.10163 3.89837 8.4 5.5 8.4H8.5876ZM6.01468 11L1.11404 15.9522C1.03951 15.647 1 15.3281 1 15C1 12.7909 2.79086 11 5 11H6.01468ZM5.5 4C4.67157 4 4 4.67157 4 5.5C4 6.32843 4.67157 7 5.5 7H8.5C9.32843 7 10 6.32843 10 5.5C10 4.67157 9.32843 4 8.5 4H5.5ZM12 13C10.8954 13 10 13.8954 10 15C10 16.1046 10.8954 17 12 17H15C16.1046 17 17 16.1046 17 15C17 13.8954 16.1046 13 15 13H12Z" fill="#525966"/>
<rect x="2.25391" y="19.8516" width="1.89474" height="24.9765" rx="0.947368" transform="rotate(-135 2.25391 19.8516)" fill="#525966"/>
</svg>
