<svg width="20" height="20" viewBox="0 0 20 20" fill="none" xmlns="http://www.w3.org/2000/svg">
<path fill-rule="evenodd" clip-rule="evenodd" d="M14.5 2.6H5.5C3.89837 2.6 2.6 3.89837 2.6 5.5C2.6 7.10163 3.89837 8.4 5.5 8.4H14.5C16.1016 8.4 17.4 7.10163 17.4 5.5C17.4 3.89837 16.1016 2.6 14.5 2.6ZM5.5 1C3.01472 1 1 3.01472 1 5.5C1 7.98528 3.01472 10 5.5 10H14.5C16.9853 10 19 7.98528 19 5.5C19 3.01472 16.9853 1 14.5 1H5.5ZM4 5.5C4 4.67157 4.67157 4 5.5 4H8.5C9.32843 4 10 4.67157 10 5.5C10 6.32843 9.32843 7 8.5 7H5.5C4.67157 7 4 6.32843 4 5.5ZM1 15C1 12.7909 2.79086 11 5 11H15C17.2091 11 19 12.7909 19 15C19 17.2091 17.2091 19 15 19H5C2.79086 19 1 17.2091 1 15ZM10 15C10 13.8954 10.8954 13 12 13H15C16.1046 13 17 13.8954 17 15C17 16.1046 16.1046 17 15 17H12C10.8954 17 10 16.1046 10 15Z" fill="#525966"/>
</svg>
