<svg width="10" height="10" viewBox="0 0 10 10" fill="none" xmlns="http://www.w3.org/2000/svg">
<path d="M5.74333 5L7.84554 2.89779C7.89439 2.84899 7.93314 2.79103 7.95959 2.72725C7.98604 2.66346 7.99967 2.59509 7.9997 2.52604C7.99973 2.45699 7.98615 2.3886 7.95975 2.3248C7.93336 2.26099 7.89465 2.20301 7.84584 2.15416C7.79703 2.10531 7.73908 2.06656 7.67529 2.04011C7.61151 2.01366 7.54314 2.00003 7.47409 2C7.40503 1.99997 7.33665 2.01355 7.27284 2.03995C7.20904 2.06634 7.15105 2.10505 7.10221 2.15386L5 4.25727L2.89779 2.15446C2.79922 2.05581 2.6655 2.00036 2.52604 2.0003C2.38658 2.00024 2.25281 2.05559 2.15416 2.15416C2.05551 2.25273 2.00006 2.38646 2 2.52592C1.99994 2.66537 2.05529 2.79914 2.15386 2.89779L4.25727 5L2.15446 7.10221C2.05581 7.20078 2.00036 7.3345 2.0003 7.47396C2.00024 7.61342 2.05559 7.74719 2.15416 7.84584C2.25273 7.94449 2.38646 7.99994 2.52591 8C2.66537 8.00006 2.79914 7.94471 2.89779 7.84614L5 5.74273L7.10221 7.84494C7.15102 7.89379 7.20897 7.93254 7.27275 7.95899C7.33654 7.98544 7.40491 7.99907 7.47396 7.9991C7.54301 7.99913 7.6114 7.98555 7.6752 7.95916C7.73901 7.93276 7.79699 7.89405 7.84584 7.84524C7.89469 7.79643 7.93344 7.73848 7.95989 7.67469C7.98634 7.61091 7.99997 7.54254 8 7.47349C8.00003 7.40443 7.98645 7.33605 7.96006 7.27224C7.93366 7.20844 7.89495 7.15045 7.84614 7.10161L5.74273 5H5.74333Z" fill="#484E59"/>
</svg>
