<svg width="20" height="20" viewBox="0 0 20 20" fill="none" xmlns="http://www.w3.org/2000/svg">
<path fill-rule="evenodd" clip-rule="evenodd" d="M0 11.9989C0 9.35766 2.14118 7.2164 4.78238 7.21628C4.78267 5.83294 5.33233 4.50633 6.31051 3.52814C7.28896 2.54969 8.61603 2 9.99977 2C11.3835 2 12.7106 2.54969 13.689 3.52814C14.6672 4.50633 15.2169 5.83294 15.2172 7.21628H15.2174C17.8587 7.21628 20 9.35758 20 11.9989C20 14.6402 17.8587 16.7815 15.2174 16.7815H4.78261C2.1413 16.7815 0 14.6402 0 11.9989ZM10.461 6.90557L10.4145 6.8634C10.2894 6.76025 10.1303 6.70742 9.96832 6.71521C9.80634 6.72301 9.65308 6.79088 9.53843 6.90557L7.07887 9.36514L7.03669 9.41166C6.93354 9.53679 6.88071 9.69587 6.88851 9.85785C6.8963 10.0198 6.96417 10.1731 7.07887 10.2877L7.12539 10.3299C7.25052 10.4331 7.4096 10.4859 7.57158 10.4781C7.73356 10.4703 7.88683 10.4024 8.00148 10.2877L9.34756 8.94122V13.5221C9.34756 13.6951 9.41627 13.8609 9.53858 13.9832C9.66088 14.1056 9.82677 14.1743 9.99973 14.1743C10.1727 14.1743 10.3386 14.1056 10.4609 13.9832C10.5832 13.8609 10.6519 13.6951 10.6519 13.5221L10.6515 8.94035L11.998 10.2877L12.0445 10.3299C12.1737 10.4377 12.3395 10.4914 12.5074 10.4798C12.6752 10.4681 12.832 10.3921 12.9451 10.2676C13.0582 10.143 13.1188 9.9796 13.1143 9.81143C13.1097 9.64325 13.0403 9.48336 12.9206 9.36514L10.461 6.90557Z" fill="#484E59"/>
</svg>
