<?xml version="1.0" standalone="no"?><!DOCTYPE svg PUBLIC "-//W3C//DTD SVG 1.1//EN" "http://www.w3.org/Graphics/SVG/1.1/DTD/svg11.dtd"><svg t="1655283348143" class="icon" viewBox="0 0 1024 1024" version="1.1" xmlns="http://www.w3.org/2000/svg" p-id="4443" xmlns:xlink="http://www.w3.org/1999/xlink" width="200" height="200"><defs><style type="text/css">@font-face { font-family: feedback-iconfont; src: url("//at.alicdn.com/t/font_1031158_u69w8yhxdu.woff2?t=1630033759944") format("woff2"), url("//at.alicdn.com/t/font_1031158_u69w8yhxdu.woff?t=1630033759944") format("woff"), url("//at.alicdn.com/t/font_1031158_u69w8yhxdu.ttf?t=1630033759944") format("truetype"); }
</style></defs><path d="M723.5072 868.352a494.08 494.08 0 0 1-417.28 2.6624l-48.5888 48.9984c-38.7584 39.0656-10.1376 103.9872 45.7728 103.9872h432.0256c54.9376 0 82.432-64.3584 43.6224-101.888l-55.552-53.76z m-211.456-600.9344a189.5936 189.5936 0 0 1 131.584 52.7872 177.408 177.408 0 0 1 54.5792 127.3344 177.4592 177.4592 0 0 1-54.6304 127.3344A189.5936 189.5936 0 0 1 512 627.6608a189.5936 189.5936 0 0 1-131.584-52.7872A177.4592 177.4592 0 0 1 325.8368 447.488 177.4592 177.4592 0 0 1 380.416 320.2048 189.5936 189.5936 0 0 1 512 267.4176zM512 51.2C285.7984 51.2 102.4 228.6592 102.4 447.488c0 218.9312 183.4496 396.288 409.6 396.288 226.304 0 409.6-177.408 409.6-396.288S738.304 51.2 512 51.2z" p-id="4444"></path></svg>