<?xml version="1.0" standalone="no"?><!DOCTYPE svg PUBLIC "-//W3C//DTD SVG 1.1//EN" "http://www.w3.org/Graphics/SVG/1.1/DTD/svg11.dtd"><svg t="1657597597177" class="icon" viewBox="0 0 1024 1024" version="1.1" xmlns="http://www.w3.org/2000/svg" p-id="3914" xmlns:xlink="http://www.w3.org/1999/xlink" width="200" height="200"><defs><style type="text/css">@font-face { font-family: feedback-iconfont; src: url("//at.alicdn.com/t/font_1031158_u69w8yhxdu.woff2?t=1630033759944") format("woff2"), url("//at.alicdn.com/t/font_1031158_u69w8yhxdu.woff?t=1630033759944") format("woff"), url("//at.alicdn.com/t/font_1031158_u69w8yhxdu.ttf?t=1630033759944") format("truetype"); }
</style></defs><path d="M867.0208 874.4448c31.2832-13.0048 54.4256-40.96 58.3168-75.6224 0 1.4848 67.8912-499.0976 67.8912-499.712a32.1536 32.1536 0 0 0-32.256-31.7952c-8.704 0-16.384 3.3792-22.1184 9.1648L723.456 469.7088l-173.056-345.4976a45.568 45.568 0 0 0-37.9904-21.7088 44.9024 44.9024 0 0 0-39.5776 24.1152l-172.032 343.552-219.7504-197.5808a29.696 29.696 0 0 0-17.8176-6.2464 31.8464 31.8464 0 0 0-32.256 31.744c0 1.024 66.9696 507.4432 66.9696 507.4432a94.5664 94.5664 0 0 0 60.2112 77.1072c70.8608 24.1152 200.96 39.9872 351.7952 38.5536 154.1632-1.4336 286.72-20.224 357.0688-46.7456zM563.2 787.7632v28.0576a14.0288 14.0288 0 0 1-14.0288 14.0288H474.624a14.0288 14.0288 0 0 1-14.0288-14.0288v-28.0576c0-7.7824 6.2976-14.08 14.0288-14.08h74.5984c7.68 0 13.9776 6.2976 13.9776 14.08z" p-id="3915"></path></svg>