<svg width="20" height="20" viewBox="0 0 20 20" fill="none" xmlns="http://www.w3.org/2000/svg">
<path fill-rule="evenodd" clip-rule="evenodd" d="M4.5458 2.5H15.4542C16.5833 2.5 17.4981 3.4701 17.5 4.66953V15.3305C17.5 16.5299 16.5833 17.5 15.4542 17.5H4.5458C3.41477 17.5 2.5 16.5279 2.5 15.3305V4.66953C2.5 3.4701 3.41669 2.5 4.5458 2.5ZM4.65824 8.30701V9.63599H6.70493V10.4396H4.65824V12.5H3.59961V7.5H4.36888H4.65824H6.95194V8.30701H4.65824ZM8.62458 10.34H10.6924V12.5H11.7475V7.5H10.6924V9.5364H8.62458V7.5H7.56595V12.5H8.62458V10.34ZM13.7272 12.5H14.2459C14.5941 12.5 14.9117 12.4439 15.1987 12.3317C15.488 12.2173 15.7362 12.0559 15.9433 11.8475C16.1526 11.6369 16.3138 11.3851 16.4267 11.092C16.542 10.799 16.5996 10.475 16.5996 10.1202V9.88324C16.5996 9.5261 16.542 9.20215 16.4267 8.9114C16.3138 8.61836 16.1526 8.36653 15.9433 8.15591C15.7339 7.94528 15.4857 7.78388 15.1987 7.6717C14.914 7.55723 14.6 7.5 14.2565 7.5H13.7272H13.1061H12.6686V12.5H13.1273H13.7272ZM13.7272 11.6964H14.2459C14.5235 11.6964 14.7576 11.6358 14.9481 11.5144C15.1387 11.3908 15.2822 11.2111 15.3787 10.9753C15.4775 10.7395 15.5269 10.4544 15.5269 10.1202V9.87637C15.5269 9.61996 15.4986 9.39446 15.4422 9.19986C15.3881 9.00527 15.3069 8.84158 15.1987 8.70879C15.0905 8.57601 14.9576 8.47642 14.7999 8.41003C14.6423 8.34135 14.4612 8.30701 14.2565 8.30701H13.7272V11.6964Z" fill="#484E59"/>
</svg>
