<?xml version="1.0" standalone="no"?><!DOCTYPE svg PUBLIC "-//W3C//DTD SVG 1.1//EN" "http://www.w3.org/Graphics/SVG/1.1/DTD/svg11.dtd"><svg t="1655283353494" class="icon" viewBox="0 0 1024 1024" version="1.1" xmlns="http://www.w3.org/2000/svg" p-id="4578" xmlns:xlink="http://www.w3.org/1999/xlink" width="200" height="200"><defs><style type="text/css">@font-face { font-family: feedback-iconfont; src: url("//at.alicdn.com/t/font_1031158_u69w8yhxdu.woff2?t=1630033759944") format("woff2"), url("//at.alicdn.com/t/font_1031158_u69w8yhxdu.woff?t=1630033759944") format("woff"), url("//at.alicdn.com/t/font_1031158_u69w8yhxdu.ttf?t=1630033759944") format("truetype"); }
</style></defs><path d="M925.184 949.248c7.0144-0.512 13.824-1.6896 20.5312-3.5328l-33.8944-33.8944-1.536-1.536L113.8176 113.7152A51.2 51.2 0 0 0 41.4208 186.1632L357.0176 501.76l-83.7632 83.8656a26.88 26.88 0 0 0 0 38.0416l113.7664 114.0736a26.8288 26.8288 0 0 0 37.9392 0l83.968-84.1216 188.3136 188.3648h-179.2512a53.6064 53.6064 0 0 0-53.6576 53.76 53.8112 53.8112 0 0 0 53.6576 53.76h286.7712l33.1264 33.1264a51.2 51.2 0 0 0 87.3472-33.3824z m-271.6672-440.5248L501.6064 356.8128l297.1648-297.728a26.8288 26.8288 0 0 1 37.888 0l113.8688 113.9712a26.88 26.88 0 0 1 0 38.0928l-296.96 297.5744z m365.3632 365.3632l-238.5408-238.592a134.1952 134.1952 0 0 1 34.6112-59.5968l67.584-67.6864a53.7088 53.7088 0 1 1 75.8784 76.032l-67.584 67.7376a26.624 26.624 0 0 0-4.4544 32.1536 26.624 26.624 0 0 0 7.68 8.5504l85.504 62.4128c37.9904 27.648 53.3504 74.24 39.3216 118.9888z m-717.5168 50.4832C228.7104 997.376 60.7232 980.992 0 920.2688c30.9248-31.0784 38.1952-69.9904 45.3632-108.544 6.912-36.9664 13.7216-73.5232 41.3696-102.2464a151.6544 151.6544 0 0 1 212.48 2.1504 152.2688 152.2688 0 0 1 2.1504 212.9408z" p-id="4579"></path></svg>