<svg width="20" height="20" viewBox="0 0 20 20" fill="none" xmlns="http://www.w3.org/2000/svg">
<path fill-rule="evenodd" clip-rule="evenodd" d="M4.5458 2.5H15.4542C16.5833 2.5 17.4981 3.4701 17.5 4.66953V15.3305C17.5 16.5299 16.5833 17.5 15.4542 17.5H4.5458C3.41477 17.5 2.5 16.5279 2.5 15.3305V4.66953C2.5 3.4701 3.41669 2.5 4.5458 2.5ZM8.50703 10.408H5.98906V13H4.7V7H5.98906V9.44368H8.50703V7H9.7918V13H8.50703V10.408ZM12.2023 13H12.834C13.2579 13 13.6447 12.9327 13.9941 12.7981C14.3465 12.6607 14.6487 12.467 14.9008 12.217C15.1557 11.9643 15.352 11.6621 15.4895 11.3104C15.6298 10.9588 15.7 10.5701 15.7 10.1442V9.85989C15.7 9.43132 15.6298 9.04258 15.4895 8.69368C15.352 8.34203 15.1557 8.03984 14.9008 7.78709C14.6458 7.53434 14.3436 7.34066 13.9941 7.20604C13.6475 7.06868 13.2651 7 12.8469 7H12.2023H11.4461H10.9133V13H11.4719H12.2023ZM12.2023 12.0357H12.834C13.172 12.0357 13.457 11.9629 13.6891 11.8173C13.9211 11.669 14.0958 11.4533 14.2133 11.1703C14.3336 10.8874 14.3938 10.5453 14.3938 10.1442V9.85165C14.3938 9.54396 14.3594 9.27335 14.2906 9.03984C14.2247 8.80632 14.1259 8.60989 13.9941 8.45055C13.8624 8.29121 13.7005 8.1717 13.5086 8.09203C13.3167 8.00962 13.0961 7.96841 12.8469 7.96841H12.2023V12.0357Z" fill="#484E59"/>
</svg>
