<svg width="20" height="20" viewBox="0 0 20 20" fill="none" xmlns="http://www.w3.org/2000/svg">
<path fill-rule="evenodd" clip-rule="evenodd" d="M14.3421 2.5H15.9211C16.7895 2.5 17.5 3.21053 17.5 4.07895V15.9211C17.5 16.7895 16.7895 17.5 15.9211 17.5H4.07895C3.21053 17.5 2.5 16.7895 2.5 15.9211V4.07895C2.5 3.21053 3.21053 2.5 4.07895 2.5H5.6579V7.63158C5.6579 8.5 6.36842 9.21053 7.23684 9.21053H12.7632C13.6316 9.21053 14.3421 8.5 14.3421 7.63158V2.5ZM5.74248 15.1316H14.2575C14.5733 15.1316 14.8496 14.8553 14.8496 14.5395C14.8496 14.2237 14.5733 13.9474 14.2575 13.9474H5.74248C5.42669 13.9474 5.15038 14.2237 5.15038 14.5395C5.15038 14.8553 5.42669 15.1316 5.74248 15.1316ZM12.8139 7.85714H7.18889C6.94782 7.85714 6.78711 7.70408 6.78711 7.47449V2.5H13.2157V7.47449C13.2157 7.70408 13.055 7.85714 12.8139 7.85714ZM11.4076 3.64796C11.0862 3.64796 10.805 3.91582 10.805 4.22194V6.1352C10.805 6.44133 11.0862 6.70918 11.4076 6.70918C11.7291 6.70918 12.0103 6.44133 12.0103 6.1352V4.22194C12.0103 3.91582 11.7291 3.64796 11.4076 3.64796Z" fill="#484E59"/>
</svg>
