<?xml version="1.0" standalone="no"?><!DOCTYPE svg PUBLIC "-//W3C//DTD SVG 1.1//EN" "http://www.w3.org/Graphics/SVG/1.1/DTD/svg11.dtd"><svg t="1655283371174" class="icon" viewBox="0 0 1024 1024" version="1.1" xmlns="http://www.w3.org/2000/svg" p-id="4848" xmlns:xlink="http://www.w3.org/1999/xlink" width="200" height="200"><defs><style type="text/css">@font-face { font-family: feedback-iconfont; src: url("//at.alicdn.com/t/font_1031158_u69w8yhxdu.woff2?t=1630033759944") format("woff2"), url("//at.alicdn.com/t/font_1031158_u69w8yhxdu.woff?t=1630033759944") format("woff"), url("//at.alicdn.com/t/font_1031158_u69w8yhxdu.ttf?t=1630033759944") format("truetype"); }
</style></defs><path d="M722.432 330.2912v-3.3792l-317.184 317.1328 2.1504 1.2288-69.8368 69.8368a961.024 961.024 0 0 1-2.048-1.3824l-62.5664 62.6176 1.8944 1.4848-138.0352 138.0352a48.64 48.64 0 0 0 68.7616 68.8128l156.8768-156.8768a391.936 391.936 0 0 0 97.024 26.0096v117.5552A52.736 52.736 0 0 0 512 1023.8976a52.736 52.736 0 0 0 52.5824-52.5312v-117.5552c192.6656-25.856 341.76-191.1808 341.76-390.7584a43.6224 43.6224 0 0 0-43.6736-43.8784 43.8784 43.8784 0 0 0-43.8272 43.8784 306.9952 306.9952 0 0 1-387.584 295.936l85.6576-85.6576a210.9952 210.9952 0 0 0 205.4144-205.4144l239.872-239.872A48.64 48.64 0 1 0 893.44 159.232l-171.008 171.0592zM301.7728 463.104c0 41.6768 12.288 80.64 33.3824 113.408l377.6-377.6A211.2 211.2 0 0 0 512.1024 51.2a210.8928 210.8928 0 0 0-210.2784 210.2784v201.6256z m-98.3552 245.1456l62.464-62.464a305.152 305.152 0 0 1-60.5184-182.7328 43.8784 43.8784 0 0 0-87.7056 0 392.192 392.192 0 0 0 85.76 245.248z" p-id="4849"></path></svg>