<?xml version="1.0" standalone="no"?><!DOCTYPE svg PUBLIC "-//W3C//DTD SVG 1.1//EN" "http://www.w3.org/Graphics/SVG/1.1/DTD/svg11.dtd"><svg t="1655283376262" class="icon" viewBox="0 0 1024 1024" version="1.1" xmlns="http://www.w3.org/2000/svg" p-id="4983" xmlns:xlink="http://www.w3.org/1999/xlink" width="200" height="200"><defs><style type="text/css">@font-face { font-family: feedback-iconfont; src: url("//at.alicdn.com/t/font_1031158_u69w8yhxdu.woff2?t=1630033759944") format("woff2"), url("//at.alicdn.com/t/font_1031158_u69w8yhxdu.woff?t=1630033759944") format("woff"), url("//at.alicdn.com/t/font_1031158_u69w8yhxdu.ttf?t=1630033759944") format("truetype"); }
</style></defs><path d="M722.432 463.104a210.944 210.944 0 0 1-210.3296 210.3296 210.944 210.944 0 0 1-210.2784-210.3296V261.4784A210.944 210.944 0 0 1 512.1024 51.2a210.944 210.944 0 0 1 210.2784 210.2784v201.6256z m96.4096 0c0-24.2176 19.6608-43.8784 43.8784-43.8784s43.7248 19.6608 43.6224 43.8784c0 199.5776-149.0432 364.9024-341.76 390.7584v117.6064A52.736 52.736 0 0 1 512 1024a52.736 52.736 0 0 1-52.5824-52.5312v-117.6064C266.752 828.0064 117.76 662.784 117.76 463.104a43.8784 43.8784 0 0 1 87.7056 0 306.9952 306.9952 0 0 0 306.688 306.688 306.9952 306.9952 0 0 0 306.7392-306.688z" p-id="4984"></path></svg>