<?xml version="1.0" standalone="no"?><!DOCTYPE svg PUBLIC "-//W3C//DTD SVG 1.1//EN" "http://www.w3.org/Graphics/SVG/1.1/DTD/svg11.dtd"><svg t="1655283331288" class="icon" viewBox="0 0 1024 1024" version="1.1" xmlns="http://www.w3.org/2000/svg" p-id="4307" xmlns:xlink="http://www.w3.org/1999/xlink" width="200" height="200"><defs><style type="text/css">@font-face { font-family: feedback-iconfont; src: url("//at.alicdn.com/t/font_1031158_u69w8yhxdu.woff2?t=1630033759944") format("woff2"), url("//at.alicdn.com/t/font_1031158_u69w8yhxdu.woff?t=1630033759944") format("woff"), url("//at.alicdn.com/t/font_1031158_u69w8yhxdu.ttf?t=1630033759944") format("truetype"); }
</style></defs><path d="M262.2976 761.7024A416.768 416.768 0 0 0 512 843.8784c226.304 0 409.6-177.408 409.6-396.288a387.072 387.072 0 0 0-93.2864-251.8016l-157.696 157.696c17.92 28.0576 27.5456 60.6208 27.5968 94.1056a177.4592 177.4592 0 0 1-54.6304 127.3344A189.5936 189.5936 0 0 1 512 627.6608a191.232 191.232 0 0 1-92.0064-23.6032l-157.696 157.696z m331.264-476.0064A191.5392 191.5392 0 0 0 512 267.4176a189.5936 189.5936 0 0 0-131.584 52.7872 177.4592 177.4592 0 0 0-54.5792 127.3344c0 29.6448 7.5776 58.4704 21.6576 84.224L188.5184 690.688A386.4576 386.4576 0 0 1 102.4 447.5392c0-218.88 183.4496-396.288 409.6-396.288V51.2c89.9072 0 173.056 28.0064 240.5376 75.4688L593.5616 285.696zM512 915.9168a494.08 494.08 0 0 0 211.5072-47.616l55.552 53.76c38.8096 37.5808 11.3152 101.9392-43.6224 101.9392H303.4112c-55.9104 0-84.48-64.9216-45.7728-103.9872l48.64-48.9984c62.464 28.4672 132.096 44.9024 205.7216 44.9024z" p-id="4308"></path><path d="M149.877396 1018.916204m-36.203867-36.203867l0 0q-36.203867-36.203867 0-72.407735l796.485078-796.485078q36.203867-36.203867 72.407735 0l0 0q36.203867 36.203867 0 72.407734l-796.485079 796.485079q-36.203867 36.203867-72.407734 0Z" p-id="4309"></path></svg>