<svg width="40" height="40" viewBox="0 0 40 40" fill="none" xmlns="http://www.w3.org/2000/svg">
<g clip-path="url(#clip0_1733_6301)">
<path d="M34.6666 38.6667C33.9303 38.6667 33.3333 38.0697 33.3333 37.3333L33.3333 5.33332V5.33332C34.8061 5.33332 36 6.52723 36 7.99999L36 37.3333C36 38.0697 35.403 38.6667 34.6666 38.6667V38.6667Z" fill="#5794FF"/>
<path d="M6.66667 34.6667C5.19391 34.6667 4 33.4727 4 32L4 2.66665C4 1.93027 4.59695 1.33332 5.33333 1.33332V1.33332C6.06971 1.33332 6.66667 1.93027 6.66667 2.66665L6.66667 34.6667V34.6667Z" fill="#5794FF"/>
<path d="M6.66667 34.6667C5.19391 34.6667 4 33.4727 4 32V32L38.6667 32C39.403 32 40 32.5969 40 33.3333V33.3333C40 34.0697 39.403 34.6667 38.6667 34.6667L6.66667 34.6667Z" fill="#5794FF"/>
<path d="M1.33333 8C0.596954 8 -2.60937e-08 7.40305 -5.82818e-08 6.66667V6.66667C-9.047e-08 5.93029 0.596953 5.33333 1.33333 5.33333L33.3333 5.33333C34.8061 5.33333 36 6.52724 36 8V8L1.33333 8Z" fill="#5794FF"/>
<path fill-rule="evenodd" clip-rule="evenodd" d="M34.6667 33.3334L34.6667 6.66669L5.33335 6.66669L5.33335 33.3334L34.6667 33.3334ZM26.6667 17.3333C26.6667 15.8606 25.4728 14.6667 24 14.6667L16 14.6667C14.5272 14.6667 13.3333 15.8606 13.3333 17.3333L13.3333 22.6667C13.3333 24.1394 14.5272 25.3333 16 25.3333L24 25.3333C25.4728 25.3333 26.6667 24.1394 26.6667 22.6667L26.6667 17.3333Z" fill="#5794FF"/>
</g>
<defs>
<clipPath id="clip0_1733_6301">
<rect width="40" height="40" fill="white" transform="translate(40) rotate(90)"/>
</clipPath>
</defs>
</svg>
