<svg width="40" height="40" viewBox="0 0 40 40" fill="none" xmlns="http://www.w3.org/2000/svg">
<g clip-path="url(#clip0_1733_6093)">
<path d="M34.6666 38.6667C33.9303 38.6667 33.3333 38.0697 33.3333 37.3333L33.3333 5.33332C34.8061 5.33332 36 6.52723 36 7.99999L36 37.3333C36 38.0697 35.403 38.6667 34.6666 38.6667Z" fill="#6C7280"/>
<path d="M6.66667 34.6667C5.19391 34.6667 4 33.4727 4 32L4 2.66665C4 1.93027 4.59695 1.33332 5.33333 1.33332C6.06971 1.33332 6.66667 1.93027 6.66667 2.66666L6.66667 34.6667Z" fill="#6C7280"/>
<path d="M6.66667 34.6667C5.19391 34.6667 4 33.4727 4 32L38.6667 32C39.403 32 40 32.5969 40 33.3333C40 34.0697 39.403 34.6667 38.6667 34.6667L6.66667 34.6667Z" fill="#6C7280"/>
<path d="M1.33333 8C0.596954 8 -2.60937e-08 7.40305 -5.82818e-08 6.66667C-9.047e-08 5.93029 0.596953 5.33333 1.33333 5.33333L33.3333 5.33333C34.8061 5.33333 36 6.52724 36 8L1.33333 8Z" fill="#6C7280"/>
<rect x="26.6667" y="14.6667" width="10.6667" height="13.3333" rx="2.66667" transform="rotate(90 26.6667 14.6667)" fill="#6C7280"/>
</g>
<defs>
<clipPath id="clip0_1733_6093">
<rect width="40" height="40" fill="white" transform="translate(40) rotate(90)"/>
</clipPath>
</defs>
</svg>
