<?xml version="1.0" standalone="no"?><!DOCTYPE svg PUBLIC "-//W3C//DTD SVG 1.1//EN" "http://www.w3.org/Graphics/SVG/1.1/DTD/svg11.dtd"><svg t="1655283362084" class="icon" viewBox="0 0 1024 1024" version="1.1" xmlns="http://www.w3.org/2000/svg" p-id="4713" xmlns:xlink="http://www.w3.org/1999/xlink" width="200" height="200"><defs><style type="text/css">@font-face { font-family: feedback-iconfont; src: url("//at.alicdn.com/t/font_1031158_u69w8yhxdu.woff2?t=1630033759944") format("woff2"), url("//at.alicdn.com/t/font_1031158_u69w8yhxdu.woff?t=1630033759944") format("woff"), url("//at.alicdn.com/t/font_1031158_u69w8yhxdu.ttf?t=1630033759944") format("truetype"); }
</style></defs><path d="M387.072 737.7408L273.2032 623.616a26.9312 26.9312 0 0 1 0-37.9904L798.7712 59.0336a26.8288 26.8288 0 0 1 37.888 0l113.8688 113.9712a26.88 26.88 0 0 1 0 38.0928L424.96 737.7408a26.8288 26.8288 0 0 1-37.888 0z m-85.7088 186.8288C228.7104 997.376 60.7232 980.992 0 920.2688c60.6208-60.8768 30.3104-152.1664 86.7328-210.7904a151.6544 151.6544 0 0 1 212.48 2.1504 152.2688 152.2688 0 0 1 2.1504 212.9408z m615.0656 24.9344h-398.4384a53.6064 53.6064 0 0 1-53.6576-53.76 53.8112 53.8112 0 0 1 53.6576-53.76h398.4384l-85.504-62.2592a134.2464 134.2464 0 0 1-47.0016-155.2896c6.7072-18.2272 17.3056-34.816 31.0272-48.5376l67.584-67.6864a53.7088 53.7088 0 1 1 75.8784 76.032l-67.584 67.7376a26.624 26.624 0 0 0-4.4544 32.1536 26.624 26.624 0 0 0 7.68 8.5504l85.504 62.4128a105.8816 105.8816 0 0 1 38.912 120.1152 105.8816 105.8816 0 0 1-102.0416 74.2912" p-id="4714"></path></svg>