<?xml version="1.0" standalone="no"?><!DOCTYPE svg PUBLIC "-//W3C//DTD SVG 1.1//EN" "http://www.w3.org/Graphics/SVG/1.1/DTD/svg11.dtd"><svg t="1655346409184" class="icon" viewBox="0 0 1024 1024" version="1.1" xmlns="http://www.w3.org/2000/svg" p-id="4310" xmlns:xlink="http://www.w3.org/1999/xlink" width="200" height="200"><defs><style type="text/css">@font-face { font-family: feedback-iconfont; src: url("//at.alicdn.com/t/font_1031158_u69w8yhxdu.woff2?t=1630033759944") format("woff2"), url("//at.alicdn.com/t/font_1031158_u69w8yhxdu.woff?t=1630033759944") format("woff"), url("//at.alicdn.com/t/font_1031158_u69w8yhxdu.ttf?t=1630033759944") format("truetype"); }
</style></defs><path d="M795.4432 153.6h-178.2784l-13.9776-29.9008a37.5296 37.5296 0 0 0-13.1584-15.5648 33.792 33.792 0 0 0-18.7904-5.7344H401.408a33.3824 33.3824 0 0 0-18.7392 5.7344 37.12 37.12 0 0 0-13.056 15.5648L355.6352 153.6H177.3568a22.9376 22.9376 0 0 0-16.7936 7.4752A26.624 26.624 0 0 0 153.6 179.2v51.2c0 6.8096 2.5088 13.312 6.9632 18.1248A22.9376 22.9376 0 0 0 177.3568 256h618.0864a22.9376 22.9376 0 0 0 16.7936-7.4752A26.624 26.624 0 0 0 819.2 230.4v-51.2a26.624 26.624 0 0 0-6.9632-18.1248 22.9376 22.9376 0 0 0-16.7936-7.4752zM232.6528 849.6128c1.1264 19.456 9.1136 37.7856 22.3232 51.2 13.2096 13.312 30.72 20.7872 48.8448 20.7872h365.1584c18.176 0 35.6352-7.424 48.8448-20.8384a79.36 79.36 0 0 0 22.3232-51.2L771.6352 307.2H201.216l31.488 542.4128z" p-id="4311"></path></svg>