<svg width="16" height="16" viewBox="0 0 16 16" fill="none" xmlns="http://www.w3.org/2000/svg">
<path fill-rule="evenodd" clip-rule="evenodd" d="M4.25524 4.71752C4.50447 4.82081 4.66687 5.06412 4.66667 5.3339L4.66517 7.3334H11.3358L11.3373 5.3329C11.3375 5.0633 11.5001 4.82036 11.7492 4.71733C11.9984 4.6143 12.285 4.67146 12.4756 4.86217L15.1383 7.52684C15.2685 7.65722 15.3336 7.82812 15.3333 7.99895L15.3333 8.00006C15.3333 8.19973 15.2456 8.3789 15.1065 8.50108L12.4716 11.138C12.2809 11.3288 11.994 11.3859 11.7448 11.2826C11.4955 11.1793 11.3331 10.936 11.3333 10.6662L11.3348 8.66673H4.66417L4.66267 10.6672C4.66247 10.9368 4.49991 11.1798 4.25078 11.2828C4.00165 11.3858 3.71499 11.3287 3.52442 11.138L0.861757 8.47329C0.731445 8.34288 0.666417 8.17193 0.666673 8.00106L0.666672 8.00006C0.666672 7.80039 0.754451 7.62123 0.893524 7.49905L3.52842 4.86217C3.71911 4.67134 4.00602 4.61424 4.25524 4.71752Z" fill="#8A8F99"/>
</svg>
