<?xml version="1.0" standalone="no"?><!DOCTYPE svg PUBLIC "-//W3C//DTD SVG 1.1//EN" "http://www.w3.org/Graphics/SVG/1.1/DTD/svg11.dtd"><svg t="1646209669074" class="icon" viewBox="0 0 1024 1024" version="1.1" xmlns="http://www.w3.org/2000/svg" p-id="4011" xmlns:xlink="http://www.w3.org/1999/xlink" width="200" height="200"><defs><style type="text/css"></style></defs><path d="M205.824 153.6h152.2688c27.3408 0 53.6576 10.3936 73.5232 28.928l1.024 0.9216 43.3152 41.472a39.424 39.424 0 0 0 26.4704 10.9568h188.672a107.008 107.008 0 0 1 103.936 79.9232l7.7312 30.2592h38.912c44.1856 0 79.9232 35.4304 79.9232 79.0016 0 8.192-1.3312 16.384-3.84 24.1152l-118.784 366.336c-5.12 15.872-15.3088 29.7984-28.9792 39.68-13.6704 9.8816-30.208 15.2064-47.104 15.2064H182.9888a79.5648 79.5648 0 0 1-79.872-74.8544L102.4 259.4816c0-57.856 44.9536-104.96 103.3216-105.8816h0.1024z m-35.5328 105.216v332.8l69.7344-193.1264c11.1104-30.72 42.2912-52.48 75.3152-52.48h417.4336c-5.4272-21.248-14.4896-42.7008-40.96-43.1616H503.296a107.8784 107.8784 0 0 1-73.5232-28.928l-1.024-0.9216-43.3152-41.472a39.424 39.424 0 0 0-26.4192-10.9568h-151.552c-20.48 0-36.864 16.128-37.1712 38.2464z m145.0496 154.2144a12.3904 12.3904 0 0 0-11.4688 8.0896l-132.3008 366.1824c-2.8672 8.192 3.1232 15.872 10.9568 16.1792h540.3648c5.12 0 9.728-3.1744 11.4176-7.936l0.1536-0.4096v-0.0512l118.784-366.2336c2.4576-7.68-3.6864-15.5136-11.6736-15.7184L315.3408 413.0304z" p-id="4012"></path></svg>