<?xml version="1.0" standalone="no"?><!DOCTYPE svg PUBLIC "-//W3C//DTD SVG 1.1//EN" "http://www.w3.org/Graphics/SVG/1.1/DTD/svg11.dtd"><svg t="1646209677050" class="icon" viewBox="0 0 1024 1024" version="1.1" xmlns="http://www.w3.org/2000/svg" p-id="4141" xmlns:xlink="http://www.w3.org/1999/xlink" width="200" height="200"><defs><style type="text/css"></style></defs><path d="M324.864 699.648a44.4928 44.4928 0 0 0 62.976 0l310.1184-310.1184a44.544 44.544 0 0 0-62.976-62.976l-310.1184 310.1184a44.544 44.544 0 0 0 0 62.976z" p-id="4142"></path><path d="M531.712 658.944l-160.0512 160.0512a68.864 68.864 0 0 1-97.28 0l-69.2736-69.3248a68.7616 68.7616 0 0 1 0-97.28L366.4896 491.008a41.2672 41.2672 0 1 0-58.368-58.368l-161.3824 161.4336a151.3472 151.3472 0 0 0 0 214.016l69.2736 69.3248a151.5008 151.5008 0 0 0 214.016 0l160.0512-160.1024a41.2672 41.2672 0 1 0-58.368-58.368z m345.7024-442.88l-69.3248-69.3248a151.296 151.296 0 0 0-214.016 0L432.6912 308.1216a41.2672 41.2672 0 1 0 58.368 58.368l161.3824-161.3824a68.7616 68.7616 0 0 1 97.28 0l69.3248 69.3248a68.864 68.864 0 0 1 0 97.28l-160.0512 160.0512a41.2672 41.2672 0 0 0 58.368 58.368l160.0512-160.1024a151.552 151.552 0 0 0 0-214.016z" p-id="4143"></path></svg>