<?xml version="1.0" encoding="UTF-8"?>
<svg width="200px" height="197px" viewBox="0 0 200 197" version="1.1" xmlns="http://www.w3.org/2000/svg" xmlns:xlink="http://www.w3.org/1999/xlink">
    <!-- Generator: Sketch 60 (88103) - https://sketch.com -->
    <title>img_Camera_Access</title>
    <desc>Created with Sketch.</desc>
    <defs>
        <rect id="path-1" x="0" y="0" width="170.394737" height="133.552632"></rect>
        <linearGradient x1="50%" y1="0%" x2="50%" y2="100%" id="linearGradient-3">
            <stop stop-color="#8FA1B0" offset="0%"></stop>
            <stop stop-color="#5F7083" offset="100%"></stop>
        </linearGradient>
        <linearGradient x1="50%" y1="0%" x2="50%" y2="100%" id="linearGradient-4">
            <stop stop-color="#8FA1B0" offset="0%"></stop>
            <stop stop-color="#5F7083" offset="100%"></stop>
        </linearGradient>
        <linearGradient x1="50%" y1="0%" x2="50%" y2="100%" id="linearGradient-5">
            <stop stop-color="#8FA1B0" offset="0%"></stop>
            <stop stop-color="#5F7083" offset="100%"></stop>
        </linearGradient>
        <linearGradient x1="115.544341%" y1="-16.0254632%" x2="35.026524%" y2="56.9678237%" id="linearGradient-6">
            <stop stop-color="#A7CCFF" offset="0%"></stop>
            <stop stop-color="#6E9DFF" offset="100%"></stop>
        </linearGradient>
        <path d="M0.662154527,38.1028219 C3.76591366,31.1390645 1.12741958,27.0428672 8.30817532,17.0698837 C9.46716619,15.4602207 14.9733055,12.4077222 18.5104688,8.53926842 C21.9623918,4.76403866 23.4493264,0.150937777 24.3757036,0.206839873 C26.3653067,0.328515074 31.5882216,4.19792173 33.4589042,5.32775942 C34.9455062,6.22562356 39.2780801,10.0975574 46.6073173,13.5016684 C53.9365544,16.9057795 58.5168176,25.2098747 64.9602657,38.1028219 C58.8534694,36.8668058 55.2378936,38.2807718 54.1135381,42.3447198 C54.1369806,33.6832422 53.2742116,31.1880486 51.5252314,34.8591392 C49.7762511,38.5302297 50.63902,53.8853998 54.1135381,80.9246493 L6.41449934,80.9246493 L13.5544092,42.3447198 C2.89039998,44.1592927 -1.40701823,42.7453268 0.662154527,38.1028219 Z" id="path-7"></path>
        <linearGradient x1="151.692914%" y1="16.11048%" x2="26.7684537%" y2="53.5764414%" id="linearGradient-9">
            <stop stop-color="#A7CCFF" offset="0%"></stop>
            <stop stop-color="#6E9DFF" offset="100%"></stop>
        </linearGradient>
        <linearGradient x1="86.4319281%" y1="-21.7956195%" x2="50%" y2="50%" id="linearGradient-10">
            <stop stop-color="#5E587E" offset="0%"></stop>
            <stop stop-color="#302C48" offset="100%"></stop>
        </linearGradient>
    </defs>
    <g id="页面-1" stroke="none" stroke-width="1" fill="none" fill-rule="evenodd">
        <g id="Microphone/Camera-Access" transform="translate(-620.000000, -377.000000)">
            <g id="编组" transform="translate(620.000000, 377.000000)">
                <g id="Group-3" transform="translate(20.394737, 30.921053)">
                    <mask id="mask-2" fill="white">
                        <use xlink:href="#path-1"></use>
                    </mask>
                    <use id="Mask" fill="#D8D8D8" fill-rule="nonzero" opacity="0" xlink:href="#path-1"></use>
                    <g mask="url(#mask-2)">
                        <g transform="translate(2.467105, 1.233553)">
                            <g id="椅子" stroke-width="1" fill="none" fill-rule="evenodd" transform="translate(109.169408, 119.037829) scale(-1, 1) translate(-109.169408, -119.037829) translate(62.911184, 49.342105)">
                                <polygon id="Rectangle-path" fill="#DDDDDF" points="43.2094585 83.9241009 47.7455416 83.9241009 47.7455416 103.162193 43.2094585 103.162193"></polygon>
                                <polygon id="Rectangle-path" fill="#E4E5E7" points="41.3054236 103.100334 49.6495766 103.100334 49.6495766 120.482662 41.3054236 120.482662"></polygon>
                                <path d="M9.16083455,5.86952064 C15.8249567,0.864579969 47.3535345,-3.80294897 55.4736832,7.21916756 C63.5938321,18.2412841 65.7218711,72.5083374 60.4017736,73.7455138 C55.081676,74.9826901 13.6969177,78.6942192 7.81680992,71.3273964 C1.93670216,63.9605735 2.49671242,10.8744613 9.16083455,5.86952064 Z" id="Shape" fill="#DDDDDF"></path>
                                <path d="M5.57676887,5.86952064 C12.240891,0.864579969 43.7694688,-3.80294897 51.8896176,7.21916756 C60.0097664,18.2412841 62.1378054,72.5083374 56.8177079,73.7455138 C51.4976104,74.9826901 10.112852,78.6942192 4.23274424,71.3273964 C-1.64736352,63.9605735 -1.08735326,10.8744613 5.57676887,5.86952064 Z" id="Shape" fill="#EBECEE"></path>
                                <path d="M10.0008499,75.6575136 C10.0008499,75.6575136 86.2742477,71.6085728 88.962297,73.1831609 C90.3517443,74.0177109 91.3033374,75.4257498 91.5624969,77.0305852 C91.8216563,78.6354205 91.3619349,80.2732785 90.3063216,81.5059836 C87.8982775,84.317748 17.2249823,84.7676303 12.18489,83.136807 C7.1447976,81.5059836 10.0008499,75.6575136 10.0008499,75.6575136 Z" id="Shape" fill="#EBECEE"></path>
                            </g>
                            <g id="Artwork-Copy" stroke-width="1" fill="none" fill-rule="evenodd" transform="translate(109.786184, 65.378289) scale(-1, 1) translate(-109.786184, -65.378289) translate(61.677632, 0.000000)">
                                <g id="lines" opacity="0.5" transform="translate(64.237343, 11.593207) rotate(87.000000) translate(-64.237343, -11.593207) translate(53.135369, 2.958338)" fill-rule="nonzero">
                                    <path d="M12.6416577,8.28034155 L10.0504292,3.29079306 C9.77877703,2.76771241 9.1381441,2.56578829 8.61953547,2.83978292 C8.10092684,3.11377754 7.90072905,3.75993472 8.17238119,4.28301537 L10.7636098,9.27256387 C11.0352619,9.79564452 11.6758948,9.99756864 12.1945035,9.72357401 C12.7131121,9.44957939 12.9133099,8.8034222 12.6416577,8.28034155 Z" id="Line" fill="url(#linearGradient-3)"></path>
                                    <path d="M6.12450214,14.0096256 L3.52767636,9.01307748 C3.25543744,8.48926302 2.61492429,8.28627782 2.09705021,8.55969734 C1.57917613,8.83311686 1.3800495,9.4794027 1.65228842,10.0032172 L4.2491142,14.9997653 C4.52135312,15.5235797 5.16186627,15.7265649 5.67974034,15.4531454 C6.19761442,15.1797259 6.39674106,14.5334401 6.12450214,14.0096256 Z" id="Line-Copy" fill="url(#linearGradient-4)" transform="translate(3.888395, 12.006421) rotate(-24.000000) translate(-3.888395, -12.006421) "></path>
                                    <path d="M20.5520413,6.43960346 L17.9718183,1.44954609 C17.7013199,0.926412089 17.0616557,0.725373801 16.5430883,1.0005145 C16.0245208,1.27565521 15.8234211,1.92278472 16.0939195,2.44591871 L18.6741425,7.43597609 C18.9446408,7.95911009 19.584305,8.16014838 20.1028725,7.88500767 C20.6214399,7.60986697 20.8225396,6.96273746 20.5520413,6.43960346 Z" id="Line-Copy-2" fill="url(#linearGradient-5)" transform="translate(18.322980, 4.442761) rotate(30.000000) translate(-18.322980, -4.442761) "></path>
                                </g>
                                <g id="shirt" transform="translate(14.802632, 48.108553)">
                                    <mask id="mask-8" fill="white">
                                        <use xlink:href="#path-7"></use>
                                    </mask>
                                    <use id="Mask" fill="url(#linearGradient-6)" xlink:href="#path-7"></use>
                                    <path d="M12.2638256,12.0846609 C26.6621748,11.7822205 34.1891168,8.5977049 34.8446515,2.53111416 C35.5001862,-3.53547658 31.7387011,-5.46772567 23.5601962,-3.2656331 L12.2638256,12.0846609 Z" id="Path-6" fill="url(#linearGradient-9)" opacity="0.184839221" style="mix-blend-mode: multiply;" mask="url(#mask-8)" transform="translate(23.590722, 3.969673) rotate(10.000000) translate(-23.590722, -3.969673) "></path>
                                </g>
                                <path d="M44.7242665,94.4334167 C51.2743751,108.977294 56.7467539,119.53821 60.9107885,119.903727 C66.3490682,121.07783 77.2430882,113.480577 88.5834752,107.118905 L89.4008176,97.7454794 C83.6575459,105.053353 71.9392318,106.288549 66.4395243,108.763658 C64.5023712,107.860752 60.3411453,103.093675 54.5598301,83.1792475 L44.7242665,94.4334167 Z" id="arm" fill="#6E9DFF" fill-rule="nonzero" transform="translate(67.062542, 101.602016) scale(1, -1) rotate(-135.000000) translate(-67.062542, -101.602016) "></path>
                                <path d="M6.48413492,94.4334167 C13.0342435,108.977294 18.5066223,119.53821 22.670657,119.903727 C28.1089366,121.07783 39.0029566,113.480577 50.3433436,107.118905 L51.160686,97.7454794 C45.4174143,105.053353 33.6991002,106.288549 28.1993927,108.763658 C26.2622396,107.860752 22.1010137,103.093675 16.3196985,83.1792475 L6.48413492,94.4334167 Z" id="arm-copy" fill="#6E9DFF" fill-rule="nonzero" transform="translate(28.822410, 101.602016) scale(-1, -1) rotate(-135.000000) translate(-28.822410, -101.602016) "></path>
                                <g id="head" transform="translate(27.138158, 8.634868)">
                                    <path d="M16.9093428,5.4799295 C24.3924076,5.54643002 29.9412902,11.6598605 29.303119,19.1346587 L28.0679173,33.6023794 C27.4297461,41.0771776 22.6007894,47.0983823 17.2821407,47.0513929 C11.9634919,47.0038508 7.02576419,40.8958515 6.25341706,33.4085183 L4.75851348,18.9165357 C3.98616635,11.4292025 9.42627793,5.41342898 16.9093428,5.4799295 Z" id="Rectangle-21" fill="#FFBDA3" transform="translate(17.019276, 26.265388) rotate(-4.000000) translate(-17.019276, -26.265388) "></path>
                                    <path d="M26.4306346,8.64865397 L27.0485597,16.1473211 C24.822357,17.4833042 22.3745565,18.5470532 20.0677747,18.3356467 C12.6990806,17.6603379 15.688471,18.3961598 14.2034923,20.1177398 L14.2034923,20.1177398 L10.5121959,31.3442391 C10.3793653,36.7376344 12.4689959,43.176867 15.6124181,46.5205523 C11.467779,45.0141334 7.80814736,40.1194427 6.76963555,34.1433979 L4.27539709,19.790474 C2.98674012,12.3749859 7.96364496,5.99636828 15.3916252,5.54343264 C22.8196054,5.090497 22.189177,7.29004202 26.4306346,8.64865397 Z" id="Combined-Shape" fill="#FF7C7C" style="mix-blend-mode: multiply;" opacity="0.275079257"></path>
                                    <path d="M6.65247866,35.3021108 C5.01264335,33.5713563 3.82474985,31.5456794 3.08879818,29.22508 C0.8169068,22.0613625 -0.0605827961,13.6977377 0.285269475,10.0972443 C1.09025872,1.71690786 11.1999238,-2.53278694 20.5215811,1.71690786 C29.8432385,5.96660266 31.6915259,14.0560328 29.4369065,15.4124528 C27.182287,16.7688727 12.5076124,17.3224884 9.58004554,14.0560328 C6.43307487,14.9603128 5.45721925,22.0423388 6.65247866,35.3021108 Z" id="Path-43" fill="url(#linearGradient-10)"></path>
                                    <path d="M6.95530242,27.0090402 C8.89638708,26.9833045 10.2509639,25.8407219 10.2786589,23.7760691 C10.3063538,21.7114164 8.75524498,20.0585476 6.81416032,20.0842833 C4.87307565,20.1100191 3.76743376,20.1414257 3.73973881,22.2060785 C3.71204386,24.2707313 5.01421775,27.0347759 6.95530242,27.0090402 Z" id="Oval-10" fill="#FFA38C" transform="translate(7.009165, 23.546603) rotate(6.000000) translate(-7.009165, -23.546603) "></path>
                                </g>
                            </g>
                            <g id="fingers" stroke-width="1" fill="none" fill-rule="evenodd" transform="translate(110.196967, 125.618784) rotate(-270.000000) translate(-110.196967, -125.618784) translate(107.113085, 119.451021)">
                                <path d="M1.56039278,1.04119925 L4.68964004,0.914485198 C5.23993969,0.892201661 5.70411008,1.3202433 5.72639362,1.87054295 C5.72745098,1.89665498 5.7274815,1.92279847 5.72648508,1.94891289 C5.70326235,2.55754406 5.21594568,3.04599954 4.60737037,3.07064286 L1.47812312,3.19735691 C0.927823466,3.21964044 0.463653077,2.79159881 0.44136954,2.24129915 C0.440312174,2.21518713 0.440281662,2.18904363 0.441278075,2.16292921 C0.464500812,1.55429805 0.951817483,1.06584257 1.56039278,1.04119925 Z" id="Rectangle-23" fill="#FFA38C" transform="translate(3.083882, 2.055921) rotate(14.000000) translate(-3.083882, -2.055921) "></path>
                                <path d="M1.56039278,3.78242732 L4.68964004,3.65571327 C5.23993969,3.63342973 5.70411008,4.06147137 5.72639362,4.61177102 C5.72745098,4.63788305 5.7274815,4.66402654 5.72648508,4.69014096 C5.70326235,5.29877213 5.21594568,5.78722761 4.60737037,5.81187093 L1.47812312,5.93858498 C0.927823466,5.96086851 0.463653077,5.53282688 0.44136954,4.98252722 C0.440312174,4.9564152 0.440281662,4.9302717 0.441278075,4.90415728 C0.464500812,4.29552612 0.951817483,3.80707064 1.56039278,3.78242732 Z" id="Rectangle-23-Copy" fill="#FFA38C" transform="translate(3.083882, 4.797149) rotate(14.000000) translate(-3.083882, -4.797149) "></path>
                                <path d="M1.56039278,6.52365539 L4.68964004,6.39694134 C5.23993969,6.3746578 5.70411008,6.80269944 5.72639362,7.35299909 C5.72745098,7.37911112 5.7274815,7.40525461 5.72648508,7.43136903 C5.70326235,8.0400002 5.21594568,8.52845568 4.60737037,8.553099 L1.47812312,8.67981305 C0.927823466,8.70209658 0.463653077,8.27405495 0.44136954,7.72375529 C0.440312174,7.69764327 0.440281662,7.67149977 0.441278075,7.64538535 C0.464500812,7.03675419 0.951817483,6.54829871 1.56039278,6.52365539 Z" id="Rectangle-23-Copy-2" fill="#FFA38C" transform="translate(3.083882, 7.538377) rotate(14.000000) translate(-3.083882, -7.538377) "></path>
                                <path d="M1.56039278,9.26488346 L4.68964004,9.13816941 C5.23993969,9.11588587 5.70411008,9.54392751 5.72639362,10.0942272 C5.72745098,10.1203392 5.7274815,10.1464827 5.72648508,10.1725971 C5.70326235,10.7812283 5.21594568,11.2696837 4.60737037,11.2943271 L1.47812312,11.4210411 C0.927823466,11.4433247 0.463653077,11.015283 0.44136954,10.4649834 C0.440312174,10.4388713 0.440281662,10.4127278 0.441278075,10.3866134 C0.464500812,9.77798226 0.951817483,9.28952678 1.56039278,9.26488346 Z" id="Rectangle-23-Copy-3" fill="#FFA38C" transform="translate(3.083882, 10.279605) rotate(14.000000) translate(-3.083882, -10.279605) "></path>
                            </g>
                            <g id="Group-37" stroke-width="1" fill="none" fill-rule="evenodd" transform="translate(0.000000, 49.342105)">
                                <g id="Group-33" transform="translate(96.217105, 38.856908) scale(-1, 1) translate(-96.217105, -38.856908) translate(49.342105, 0.000000)">
                                    <path d="M90.9922381,0.260090541 L2.53983387,0.260090541 C2.07005955,0.234465175 1.61052778,0.404806741 1.26922486,0.731087762 C0.92792193,1.05736878 0.735625108,1.5108209 0.735625108,1.98488619 L0.735625108,56.5723326 L92.7964469,56.5723326 L92.7964469,1.98488619 C92.7964469,1.5108209 92.6041501,1.05736878 92.2628471,0.731087762 C91.9215442,0.404806741 91.4620124,0.234465175 90.9922381,0.260090541 Z" id="Shape" fill="#F3F4F6"></path>
                                    <path d="M0.735626938,56.5723326 L0.735626938,63.8444436 C0.74772754,64.2895819 0.934906393,64.7116233 1.25594726,65.0176371 C1.57698812,65.3236509 2.00556599,65.4885435 2.44731071,65.4760066 L91.0847613,65.4760066 C91.5299832,65.5016853 91.9660043,65.3411936 92.2899734,65.0323891 C92.6139425,64.7235839 92.7964472,64.2938098 92.7964472,63.8444436 L92.7964472,56.5723326 L0.735626938,56.5723326 Z" id="Shape" fill="#F3F4F6"></path>
                                    <ellipse id="Oval" fill="#DDDDDF" cx="47.9833853" cy="13.3938946" rx="3.14642876" ry="3.16839249"></ellipse>
                                    <polygon id="Shape" fill="#DDDDDF" points="71.050919 74.9751987 71.050919 76.7932262 31.5896739 76.7932262 31.5896739 74.9751987 35.4756581 74.9751987 67.1186728 74.9751987"></polygon>
                                    <path d="M41.3726909,72.6548849 C41.3726909,72.6548849 41.1876437,74.5195288 38.9208194,74.8458417 L36.0988552,75.3120029 L70.5638341,75.3120029 L67.695608,74.8458417 C65.4750456,74.5195288 65.2899985,72.6548849 65.2899985,72.6548849 L64.919905,69.0188298 L41.7890463,68.506053 L41.3726909,72.6548849 Z" id="Shape" fill="#F3F4F6"></path>
                                    <polygon id="Shape" fill="#ECEDEF" points="41.7798933 69.0188298 64.919905 69.0188298 64.5960727 65.4760066 42.1128786 65.4760066"></polygon>
                                </g>
                                <polygon id="Shape" fill="#DDDDDF" points="163.839569 77.7138158 167.763158 162.828947 165.801363 162.828947 160.361842 79.8962547"></polygon>
                                <polygon id="Shape" fill="#DDDDDF" points="36.0405441 77.7138158 32.0723684 162.828947 34.0341634 162.828947 39.4736842 78.8282528"></polygon>
                                <polygon id="Shape" fill="#E8E8E8" points="3.94441369 77.7138158 0 162.828947 1.9943666 162.828947 7.40131579 78.8282528"></polygon>
                                <polygon id="Shape" fill="#DDDDDF" points="125.578613 78.9473684 129.523026 164.0625 127.52866 164.0625 122.121711 81.0833729"></polygon>
                                <polygon id="Shape" fill="#E4E5E7" points="1.23355263 76.4802632 165.296053 76.4802632 165.296053 83.8815789 1.23355263 82.3747241"></polygon>
                                <polygon id="Shape" fill="#EBECEE" points="115.953947 76.4802632 165.296053 76.4802632 165.296053 83.8815789 116.091391 83.4827057"></polygon>
                                <g id="Group-23" transform="translate(145.559211, 56.743421)">
                                    <polygon id="Shape" fill="#F3F4F6" points="12.2287575 20.3759195 2.01417025 20.3759195 0.804548077 3.21344505 13.3935788 3.21344505"></polygon>
                                    <polygon id="Shape" fill="#F3F4F6" points="1.96936943 0.345445343 12.2287575 0.345445343 13.3935788 3.21344505 0.804548077 3.21344505"></polygon>
                                    <polygon id="Shape" fill="#DDDDDF" points="12.9007698 15.2772534 13.3935788 7.62925413 0.804548077 7.62925413 1.34215793 15.2772534"></polygon>
                                    <ellipse id="Oval" fill="#FFFFFF" cx="9.70035778" cy="11.4143154" rx="2.04022109" ry="2.07317225"></ellipse>
                                    <polygon id="Rectangle-path" fill="#F3F4F6" points="0.266938225 2.53058798 13.9311886 2.53058798 13.9311886 3.93272117 0.266938225 3.93272117"></polygon>
                                    <polygon id="Shape" fill="#DDDDDF" points="13.2591763 5.30754008 13.348778 3.89630213 0.849348899 3.89630213 0.983751359 5.30754008"></polygon>
                                </g>
                                <path d="M78.9473684,65.3756318 C79.969801,54.1296802 80.94052,43.5974402 81.8595253,33.7789118 C82.0552528,31.6877862 83.4097311,30.7393038 85.9229603,30.9334646 L102.384868,30.8388158 C100.664793,31.9198808 99.8047546,33.2201894 99.8047546,34.7397417 C99.8047546,45.0754866 100.143232,55.2883359 100.820186,65.3782895 L78.9473684,65.3756318 Z" id="Path-14" fill="#ECEDEF" fill-rule="nonzero"></path>
                            </g>
                            <path d="M105.516032,123.774478 C106.615919,121.849261 108.375523,120.886652 110.794844,120.886652 C112.421161,120.886652 114.031011,120.003776 114.801403,120.353297 C115.750073,120.783702 116.661674,122.011858 116.661674,122.462589 C116.661674,123.923356 116.195879,124.822532 115.26429,125.160117 L105.516032,123.774478 Z" id="Path-7" fill="#FFA38C" fill-rule="nonzero"></path>
                        </g>
                    </g>
                </g>
                <g id="编组-11" transform="translate(15.000000, 24.000000)">
                    <circle id="椭圆形备份" fill="#4A90E2" cx="25" cy="25" r="25"></circle>
                    <path d="M25,9.375 C27.5355238,9.375 29.877904,9.98319696 32.03125,11.2365758 C34.1804866,12.4858453 35.9146698,14.1542775 37.1680487,16.3076235 C38.4214275,18.45686 39.0625,20.7704741 39.0625,23.305998 C39.0625,25.8415218 38.4214275,28.1551359 37.1680487,30.3043724 C36.13247,32.0837595 34.7722458,33.530282 33.1161419,34.6850343 C35.1626425,35.3096691 36.4242402,36.1644323 36.4242402,37.1137127 C36.4242402,39.0204924 31.3079887,40.5656414 25,40.5656414 C18.6920113,40.5656414 13.5757598,39.0204924 13.5757598,37.1137127 C13.5757598,36.1685418 14.8291387,35.3137785 16.8633109,34.6891438 C15.2113165,33.5343914 13.86753,32.0837595 12.8319513,30.3043724 C11.5785725,28.1551359 10.9375,25.8415218 10.9375,23.305998 C10.9375,20.7704741 11.5785725,18.45686 12.8319513,16.3076235 C14.0812208,14.1583869 15.7866379,12.4899547 17.9358745,11.2365758 C20.0892205,9.98319696 22.4644762,9.375 25,9.375 Z M25,15.7939436 C22.912405,15.7939436 21.1124708,16.5336426 19.6371822,18.0089312 C18.1618936,19.4554537 17.4221946,21.2225124 17.4221946,23.305998 C17.4221946,25.3935929 18.1618936,27.1565422 19.6371822,28.6030647 C21.1165802,30.0454778 22.912405,30.7851768 25,30.7851768 C27.087595,30.7851768 28.8875292,30.0495872 30.3628178,28.6030647 C31.8381064,27.1606517 32.5778054,25.3935929 32.5778054,23.305998 C32.5778054,21.218403 31.8381064,19.4554537 30.3628178,18.0089312 C28.8834198,16.5336426 27.087595,15.7939436 25,15.7939436 Z M25,18.6500037 L25.254633,18.655987 C26.4307605,18.7118827 27.4374452,19.160122 28.3080983,20.0307751 C29.2368315,20.9307423 29.6888698,22.0197436 29.6888698,23.305998 C29.6888698,24.5922523 29.240941,25.6812537 28.3080983,26.5812208 C27.3752557,27.4811879 26.2862544,27.9291167 25,27.9291167 L25,27.9291167 L24.7453158,27.9231431 C23.5687281,27.8673838 22.5587193,27.4211901 21.6919017,26.5812208 C20.759059,25.6812537 20.3111302,24.5922523 20.3111302,23.305998 C20.3111302,22.0197436 20.759059,20.9307423 21.6919017,20.0307751 C22.6247443,19.0979325 23.7137456,18.6500037 25,18.6500037 L25,18.6500037 Z" id="形状结合" fill="#FFFFFF" fill-rule="nonzero"></path>
                </g>
                <g id="编组-4" transform="translate(50.000000, 56.000000)" stroke="#FFFFFF" stroke-width="2">
                    <circle id="椭圆形" fill="#2BD281" cx="9" cy="9" r="9"></circle>
                    <polyline id="路径-17" points="4.5 7.73107591 8.15612853 11.4810759 13.5 6"></polyline>
                </g>
                <path d="M45,80.2631579 C49.8470757,91.4255806 57.3920318,97.1821595 67.6348684,97.5328947" id="路径-18" stroke="#C6CFD6" stroke-dasharray="2,2"></path>
            </g>
        </g>
    </g>
</svg>