<?xml version="1.0" encoding="UTF-8"?>
<svg width="30px" height="30px" viewBox="0 0 30 30" version="1.1" xmlns="http://www.w3.org/2000/svg" xmlns:xlink="http://www.w3.org/1999/xlink">
    <!-- Generator: Sketch 52.5 (67469) - http://www.bohemiancoding.com/sketch -->
    <title>img_camera</title>
    <desc>Created with Sketch.</desc>
    <g id="Page-1" stroke="none" stroke-width="1" fill="none" fill-rule="evenodd">
        <g id="AwesomeScreenshot-Homepage-PlanA" transform="translate(-1277.000000, -2049.000000)">
            <g id="img_camera" transform="translate(1277.000000, 2049.000000)">
                <path d="M11.5780469,15.8 C11.1437891,15.8 10.79375,15.4499609 10.79375,15.0157031 C10.79375,12.70625 12.6717969,10.825 14.9844531,10.825 C15.4187109,10.825 15.76875,11.1750391 15.76875,11.6092969 C15.76875,12.04375 15.4187109,12.39375 14.9844531,12.39375 C13.5406641,12.39375 12.3625,13.5687109 12.3625,15.0157031 C12.3625,15.4499609 12.0125,15.8 11.5780469,15.8 Z" id="Fill-1" fill="#E5F5FB"></path>
                <path d="M14.9844531,23.9593359 C10.0530859,23.9593359 6.04066406,19.946875 6.04066406,15.0157031 C6.04066406,10.0843359 10.0530859,6.07191406 14.9844531,6.07191406 C19.915625,6.07191406 23.9280859,10.0843359 23.9280859,15.0157031 C23.9280859,19.946875 19.915625,23.9593359 14.9844531,23.9593359 Z M14.9844531,8.42496094 C11.3499609,8.42496094 8.39371094,11.3812109 8.39371094,15.0157031 C8.39371094,18.6500391 11.3499609,21.60625 14.9844531,21.60625 C18.6187891,21.60625 21.575,18.6500391 21.575,15.0157031 C21.575,11.3812109 18.6187891,8.42496094 14.9844531,8.42496094 Z" id="Fill-2" fill="#D0F0FF"></path>
                <path d="M14.9844531,29.9999609 C6.72179687,29.9999609 0,23.2781641 0,15.0157031 C0,6.75304688 6.72179687,0.03125 14.9844531,0.03125 C23.2469141,0.03125 29.9687109,6.75304688 29.9687109,15.0157031 C29.9687109,23.2781641 23.2469141,29.9999609 14.9844531,29.9999609 Z M14.9844531,3.16875 C8.45304687,3.16875 3.1375,8.48429688 3.1375,15.0157031 C3.1375,21.5469141 8.45304687,26.8624609 14.9844531,26.8624609 C21.5156641,26.8624609 26.8312109,21.5469141 26.8312109,15.0157031 C26.8312109,8.48429688 21.5156641,3.16875 14.9844531,3.16875 Z" id="Fill-3" fill="#D0F0FF"></path>
            </g>
        </g>
    </g>
</svg>